# xmcd
# 
# Track frame offsets:
#     187
#     50275
#     67197
#     89005
#     107487
#     128285
# 
# Disc length: 2321
# 
# Revision: 1
# Processed by: cddbd v1.5.2PL0 Copyright (c) Steve Scherf et al.
# Submitted via: fre:ac v1.0.17
# 
DISCID=49090f06
DTITLE=Max Creek - Windows
DYEAR=1986
DGENRE=Country
TTITLE0=You Write The Book - Darlin'
TTITLE1=If You Ask Me
TTITLE2=Double Dare
TTITLE3=L.F.S.
TTITLE4=Band From Chicago
TTITLE5=I Will Always See Your Face - Windows
EXTD=ARD Relix Records  RRCD 2018 
EXTT0=
EXTT1=
EXTT2=
EXTT3=
EXTT4=
EXTT5=
PLAYORDER=
